<mxfile host="app.diagrams.net" modified="2021-01-13T01:50:54.881Z" agent="5.0 (Windows NT 10.0; Win64; x64) AppleWebKit/537.36 (KHTML, like Gecko) Chrome/86.0.4240.111 Safari/537.36" etag="8hhbR7nNzWcdMCm7nwjI" version="14.1.9" type="github">
  <diagram name="Page-1" id="74e2e168-ea6b-b213-b513-2b3c1d86103e">
    <mxGraphModel dx="1422" dy="762" grid="1" gridSize="10" guides="1" tooltips="1" connect="1" arrows="1" fold="1" page="1" pageScale="1" pageWidth="1100" pageHeight="850" background="#ffffff" math="0" shadow="0">
      <root>
        <mxCell id="0" />
        <mxCell id="1" parent="0" />
        <mxCell id="77e6c97f196da883-1" value="Pool" style="swimlane;html=1;childLayout=stackLayout;startSize=20;rounded=0;shadow=0;labelBackgroundColor=none;strokeWidth=1;fontFamily=Verdana;fontSize=8;align=center;" parent="1" vertex="1">
          <mxGeometry x="350" y="30" width="650" height="760" as="geometry" />
        </mxCell>
        <mxCell id="77e6c97f196da883-2" value="执勤人员" style="swimlane;html=1;startSize=20;" parent="77e6c97f196da883-1" vertex="1">
          <mxGeometry y="20" width="160" height="740" as="geometry" />
        </mxCell>
        <mxCell id="77e6c97f196da883-8" value="扫码车牌" style="rounded=1;whiteSpace=wrap;html=1;shadow=0;labelBackgroundColor=none;strokeWidth=1;fontFamily=Verdana;fontSize=8;align=center;" parent="77e6c97f196da883-2" vertex="1">
          <mxGeometry x="20" y="30" width="100" height="60" as="geometry" />
        </mxCell>
        <mxCell id="77e6c97f196da883-10" value="核查车辆信息" style="rounded=1;whiteSpace=wrap;html=1;shadow=0;labelBackgroundColor=none;strokeWidth=1;fontFamily=Verdana;fontSize=8;align=center;" parent="77e6c97f196da883-2" vertex="1">
          <mxGeometry x="20" y="396" width="100" height="60" as="geometry" />
        </mxCell>
        <mxCell id="B_1sQzXGcmrJrJu_MU2c-25" value="核查人员信息" style="rounded=1;whiteSpace=wrap;html=1;shadow=0;labelBackgroundColor=none;strokeWidth=1;fontFamily=Verdana;fontSize=8;align=center;" parent="77e6c97f196da883-2" vertex="1">
          <mxGeometry x="20" y="486" width="100" height="60" as="geometry" />
        </mxCell>
        <mxCell id="B_1sQzXGcmrJrJu_MU2c-26" value="核查物品信息" style="rounded=1;whiteSpace=wrap;html=1;shadow=0;labelBackgroundColor=none;strokeWidth=1;fontFamily=Verdana;fontSize=8;align=center;" parent="77e6c97f196da883-2" vertex="1">
          <mxGeometry x="20" y="576" width="100" height="60" as="geometry" />
        </mxCell>
        <mxCell id="B_1sQzXGcmrJrJu_MU2c-27" value="" style="endArrow=classic;html=1;exitX=0.5;exitY=1;exitDx=0;exitDy=0;entryX=0.5;entryY=0;entryDx=0;entryDy=0;entryPerimeter=0;" parent="77e6c97f196da883-2" source="77e6c97f196da883-10" target="B_1sQzXGcmrJrJu_MU2c-25" edge="1">
          <mxGeometry width="50" height="50" relative="1" as="geometry">
            <mxPoint x="180" y="471" as="sourcePoint" />
            <mxPoint x="60" y="486" as="targetPoint" />
          </mxGeometry>
        </mxCell>
        <mxCell id="B_1sQzXGcmrJrJu_MU2c-29" value="放行" style="whiteSpace=wrap;html=1;rounded=1;shadow=0;fontFamily=Verdana;fontSize=8;strokeWidth=1;" parent="77e6c97f196da883-2" vertex="1">
          <mxGeometry x="10" y="666" width="120" height="60" as="geometry" />
        </mxCell>
        <mxCell id="B_1sQzXGcmrJrJu_MU2c-30" value="" style="edgeStyle=elbowEdgeStyle;rounded=0;orthogonalLoop=1;jettySize=auto;html=1;" parent="77e6c97f196da883-2" source="B_1sQzXGcmrJrJu_MU2c-26" target="B_1sQzXGcmrJrJu_MU2c-29" edge="1">
          <mxGeometry relative="1" as="geometry" />
        </mxCell>
        <mxCell id="W8f8cgMBwynPwOEp2Sqc-1" value="生成二维码&lt;br&gt;并出示" style="rounded=1;whiteSpace=wrap;html=1;shadow=0;labelBackgroundColor=none;strokeWidth=1;fontFamily=Verdana;fontSize=8;align=center;" parent="77e6c97f196da883-2" vertex="1">
          <mxGeometry x="20" y="116" width="100" height="60" as="geometry" />
        </mxCell>
        <mxCell id="W8f8cgMBwynPwOEp2Sqc-2" value="" style="endArrow=classic;html=1;exitX=0.5;exitY=1;exitDx=0;exitDy=0;entryX=0.5;entryY=0;entryDx=0;entryDy=0;" parent="77e6c97f196da883-2" source="77e6c97f196da883-8" target="W8f8cgMBwynPwOEp2Sqc-1" edge="1">
          <mxGeometry width="50" height="50" relative="1" as="geometry">
            <mxPoint x="50" y="280" as="sourcePoint" />
            <mxPoint x="100" y="230" as="targetPoint" />
          </mxGeometry>
        </mxCell>
        <mxCell id="77e6c97f196da883-26" style="edgeStyle=orthogonalEdgeStyle;rounded=1;html=1;labelBackgroundColor=none;startArrow=none;startFill=0;startSize=5;endArrow=classicThin;endFill=1;endSize=5;jettySize=auto;orthogonalLoop=1;strokeWidth=1;fontFamily=Verdana;fontSize=8;exitX=1;exitY=0.25;exitDx=0;exitDy=0;" parent="77e6c97f196da883-1" source="W8f8cgMBwynPwOEp2Sqc-1" target="77e6c97f196da883-11" edge="1">
          <mxGeometry relative="1" as="geometry" />
        </mxCell>
        <mxCell id="77e6c97f196da883-3" value="乘车人员" style="swimlane;html=1;startSize=20;" parent="77e6c97f196da883-1" vertex="1">
          <mxGeometry x="160" y="20" width="160" height="740" as="geometry" />
        </mxCell>
        <mxCell id="77e6c97f196da883-11" value="扫码" style="rounded=1;whiteSpace=wrap;html=1;shadow=0;labelBackgroundColor=none;strokeWidth=1;fontFamily=Verdana;fontSize=8;align=center;" parent="77e6c97f196da883-3" vertex="1">
          <mxGeometry x="30" y="101" width="100" height="60" as="geometry" />
        </mxCell>
        <mxCell id="77e6c97f196da883-9" value="填写个人信息" style="rounded=1;whiteSpace=wrap;html=1;shadow=0;labelBackgroundColor=none;strokeWidth=1;fontFamily=Verdana;fontSize=8;align=center;" parent="77e6c97f196da883-3" vertex="1">
          <mxGeometry x="30" y="196" width="100" height="60" as="geometry" />
        </mxCell>
        <mxCell id="77e6c97f196da883-27" style="edgeStyle=orthogonalEdgeStyle;rounded=1;html=1;labelBackgroundColor=none;startArrow=none;startFill=0;startSize=5;endArrow=classicThin;endFill=1;endSize=5;jettySize=auto;orthogonalLoop=1;strokeWidth=1;fontFamily=Verdana;fontSize=8" parent="77e6c97f196da883-3" source="77e6c97f196da883-11" target="77e6c97f196da883-9" edge="1">
          <mxGeometry relative="1" as="geometry">
            <Array as="points">
              <mxPoint x="80" y="186" />
              <mxPoint x="80" y="186" />
            </Array>
          </mxGeometry>
        </mxCell>
        <mxCell id="B_1sQzXGcmrJrJu_MU2c-9" value="" style="endArrow=classic;html=1;exitX=0.5;exitY=1;exitDx=0;exitDy=0;entryX=0.5;entryY=0;entryDx=0;entryDy=0;" parent="77e6c97f196da883-3" source="77e6c97f196da883-9" target="B_1sQzXGcmrJrJu_MU2c-11" edge="1">
          <mxGeometry width="50" height="50" relative="1" as="geometry">
            <mxPoint x="10" y="426" as="sourcePoint" />
            <mxPoint x="80" y="276" as="targetPoint" />
          </mxGeometry>
        </mxCell>
        <mxCell id="B_1sQzXGcmrJrJu_MU2c-11" value="填写物品信息" style="rounded=1;whiteSpace=wrap;html=1;shadow=0;labelBackgroundColor=none;strokeWidth=1;fontFamily=Verdana;fontSize=8;align=center;" parent="77e6c97f196da883-3" vertex="1">
          <mxGeometry x="30" y="290" width="100" height="60" as="geometry" />
        </mxCell>
        <mxCell id="B_1sQzXGcmrJrJu_MU2c-20" style="edgeStyle=elbowEdgeStyle;rounded=0;orthogonalLoop=1;jettySize=auto;html=1;entryX=0;entryY=0.5;entryDx=0;entryDy=0;exitX=1;exitY=0.25;exitDx=0;exitDy=0;" parent="77e6c97f196da883-1" source="W8f8cgMBwynPwOEp2Sqc-1" target="B_1sQzXGcmrJrJu_MU2c-13" edge="1">
          <mxGeometry relative="1" as="geometry">
            <Array as="points">
              <mxPoint x="170" y="90" />
            </Array>
          </mxGeometry>
        </mxCell>
        <mxCell id="B_1sQzXGcmrJrJu_MU2c-23" style="edgeStyle=elbowEdgeStyle;rounded=0;orthogonalLoop=1;jettySize=auto;html=1;entryX=1;entryY=0.5;entryDx=0;entryDy=0;" parent="77e6c97f196da883-1" source="B_1sQzXGcmrJrJu_MU2c-18" target="77e6c97f196da883-10" edge="1">
          <mxGeometry relative="1" as="geometry">
            <mxPoint x="60" y="450" as="targetPoint" />
            <Array as="points">
              <mxPoint x="390" y="420" />
            </Array>
          </mxGeometry>
        </mxCell>
        <mxCell id="B_1sQzXGcmrJrJu_MU2c-24" value="" style="endArrow=classic;html=1;exitX=0.5;exitY=1;exitDx=0;exitDy=0;entryX=1;entryY=0.5;entryDx=0;entryDy=0;" parent="77e6c97f196da883-1" source="B_1sQzXGcmrJrJu_MU2c-11" target="77e6c97f196da883-10" edge="1">
          <mxGeometry width="50" height="50" relative="1" as="geometry">
            <mxPoint x="230" y="520" as="sourcePoint" />
            <mxPoint x="280" y="470" as="targetPoint" />
          </mxGeometry>
        </mxCell>
        <mxCell id="B_1sQzXGcmrJrJu_MU2c-34" value="" style="edgeStyle=elbowEdgeStyle;rounded=0;orthogonalLoop=1;jettySize=auto;html=1;entryX=0;entryY=0.5;entryDx=0;entryDy=0;" parent="77e6c97f196da883-1" source="B_1sQzXGcmrJrJu_MU2c-26" target="B_1sQzXGcmrJrJu_MU2c-74" edge="1">
          <mxGeometry relative="1" as="geometry">
            <mxPoint x="340" y="610" as="targetPoint" />
          </mxGeometry>
        </mxCell>
        <mxCell id="B_1sQzXGcmrJrJu_MU2c-4" value="乘车人员" style="swimlane;html=1;startSize=20;" parent="77e6c97f196da883-1" vertex="1">
          <mxGeometry x="320" y="20" width="160" height="740" as="geometry" />
        </mxCell>
        <mxCell id="B_1sQzXGcmrJrJu_MU2c-13" value="扫码" style="rounded=1;whiteSpace=wrap;html=1;shadow=0;labelBackgroundColor=none;strokeWidth=1;fontFamily=Verdana;fontSize=8;align=center;" parent="B_1sQzXGcmrJrJu_MU2c-4" vertex="1">
          <mxGeometry x="20" y="54" width="100" height="57" as="geometry" />
        </mxCell>
        <mxCell id="B_1sQzXGcmrJrJu_MU2c-14" value="填写个人信息" style="rounded=1;whiteSpace=wrap;html=1;shadow=0;labelBackgroundColor=none;strokeWidth=1;fontFamily=Verdana;fontSize=8;align=center;" parent="B_1sQzXGcmrJrJu_MU2c-4" vertex="1">
          <mxGeometry x="20" y="146" width="100" height="60" as="geometry" />
        </mxCell>
        <mxCell id="B_1sQzXGcmrJrJu_MU2c-15" style="edgeStyle=orthogonalEdgeStyle;rounded=1;html=1;labelBackgroundColor=none;startArrow=none;startFill=0;startSize=5;endArrow=classicThin;endFill=1;endSize=5;jettySize=auto;orthogonalLoop=1;strokeWidth=1;fontFamily=Verdana;fontSize=8" parent="B_1sQzXGcmrJrJu_MU2c-4" edge="1">
          <mxGeometry relative="1" as="geometry">
            <Array as="points">
              <mxPoint x="70" y="138" />
              <mxPoint x="70" y="138" />
            </Array>
            <mxPoint x="70" y="113" as="sourcePoint" />
            <mxPoint x="70" y="148" as="targetPoint" />
          </mxGeometry>
        </mxCell>
        <mxCell id="B_1sQzXGcmrJrJu_MU2c-18" value="填写物品信息" style="rounded=1;whiteSpace=wrap;html=1;shadow=0;labelBackgroundColor=none;strokeWidth=1;fontFamily=Verdana;fontSize=8;align=center;" parent="B_1sQzXGcmrJrJu_MU2c-4" vertex="1">
          <mxGeometry x="20" y="260" width="100" height="60" as="geometry" />
        </mxCell>
        <mxCell id="B_1sQzXGcmrJrJu_MU2c-19" value="" style="edgeStyle=none;rounded=0;orthogonalLoop=1;jettySize=auto;html=1;exitX=0.5;exitY=1;exitDx=0;exitDy=0;entryX=0.5;entryY=0;entryDx=0;entryDy=0;" parent="B_1sQzXGcmrJrJu_MU2c-4" source="B_1sQzXGcmrJrJu_MU2c-14" target="B_1sQzXGcmrJrJu_MU2c-18" edge="1">
          <mxGeometry relative="1" as="geometry">
            <mxPoint x="70" y="288" as="sourcePoint" />
            <mxPoint x="70" y="250" as="targetPoint" />
          </mxGeometry>
        </mxCell>
        <mxCell id="B_1sQzXGcmrJrJu_MU2c-66" value="处置点" style="swimlane;html=1;startSize=20;" parent="77e6c97f196da883-1" vertex="1">
          <mxGeometry x="480" y="20" width="160" height="740" as="geometry" />
        </mxCell>
        <mxCell id="B_1sQzXGcmrJrJu_MU2c-74" value="核查处置" style="whiteSpace=wrap;html=1;rounded=1;shadow=0;fontFamily=Verdana;fontSize=8;strokeWidth=1;" parent="B_1sQzXGcmrJrJu_MU2c-66" vertex="1">
          <mxGeometry x="20" y="576" width="120" height="60" as="geometry" />
        </mxCell>
        <mxCell id="B_1sQzXGcmrJrJu_MU2c-28" value="" style="endArrow=classic;html=1;entryX=0.5;entryY=0;entryDx=0;entryDy=0;" parent="1" target="B_1sQzXGcmrJrJu_MU2c-26" edge="1">
          <mxGeometry width="50" height="50" relative="1" as="geometry">
            <mxPoint x="420" y="596" as="sourcePoint" />
            <mxPoint x="430" y="546" as="targetPoint" />
          </mxGeometry>
        </mxCell>
      </root>
    </mxGraphModel>
  </diagram>
</mxfile>
